<svg width="500" height="500" viewBox="0 0 500 500" fill="none" xmlns="http://www.w3.org/2000/svg">
<rect width="500" height="500" fill="#E86D44"/>
<path d="M190.223 428.443C186.175 428.443 182.318 428.124 178.653 427.484C174.989 426.888 171.771 426.057 169.001 424.991L176.672 399.935C179.57 400.957 182.212 401.618 184.598 401.916C187.027 402.214 189.094 402.044 190.798 401.405C192.545 400.766 193.803 399.551 194.57 397.761L195.337 395.972L160.82 293.443H197.638L213.49 361.455H214.513L230.621 293.443H267.695L231.899 399.807C230.109 405.219 227.51 410.077 224.101 414.381C220.734 418.727 216.303 422.158 210.805 424.672C205.308 427.186 198.447 428.443 190.223 428.443Z" fill="#2D0E04"/>
<path d="M48 391.625V260.716H104.761C114.733 260.716 123.107 262.058 129.882 264.743C136.7 267.428 141.835 271.22 145.287 276.121C148.781 281.021 150.528 286.795 150.528 293.443C150.528 298.259 149.463 302.648 147.332 306.611C145.244 310.574 142.304 313.898 138.511 316.582C134.719 319.224 130.287 321.057 125.216 322.08V323.358C130.841 323.571 135.955 324.999 140.557 327.641C145.159 330.24 148.824 333.841 151.551 338.443C154.278 343.003 155.642 348.372 155.642 354.551C155.642 361.71 153.767 368.081 150.017 373.663C146.31 379.246 141.026 383.635 134.165 386.831C127.304 390.027 119.122 391.625 109.619 391.625H48ZM83.5398 363.244H100.159C106.125 363.244 110.599 362.136 113.582 359.92C116.565 357.662 118.057 354.338 118.057 349.949C118.057 346.881 117.354 344.281 115.947 342.151C114.541 340.02 112.538 338.401 109.939 337.293C107.382 336.185 104.293 335.631 100.67 335.631H83.5398V363.244ZM83.5398 313.642H98.1136C101.224 313.642 103.973 313.152 106.359 312.172C108.746 311.192 110.599 309.786 111.92 307.953C113.284 306.078 113.966 303.798 113.966 301.114C113.966 297.065 112.517 293.976 109.619 291.845C106.722 289.672 103.057 288.585 98.625 288.585H83.5398V313.642Z" fill="#2D0E04"/>
<path d="M450.715 113.443V139.011H386.027V113.443H450.715ZM398.556 89.9205H433.84V180.048C433.84 181.412 434.074 182.562 434.543 183.5C435.012 184.395 435.736 185.077 436.716 185.545C437.696 185.972 438.953 186.185 440.488 186.185C441.553 186.185 442.789 186.057 444.195 185.801C445.644 185.545 446.709 185.332 447.391 185.162L452.505 209.963C450.928 210.432 448.669 211.007 445.729 211.689C442.831 212.371 439.38 212.818 435.374 213.031C427.277 213.457 420.48 212.626 414.983 210.538C409.486 208.408 405.353 205.062 402.583 200.503C399.813 195.943 398.471 190.233 398.556 183.372V89.9205Z" fill="#2D0E04"/>
<path d="M374.186 80.7159V211.625H338.902V80.7159H374.186Z" fill="#2D0E04"/>
<path d="M285.64 211.625V113.443H320.924V211.625H285.64ZM303.282 103.216C298.51 103.216 294.419 101.639 291.01 98.4858C287.6 95.3324 285.896 91.5398 285.896 87.108C285.896 82.6761 287.6 78.8835 291.01 75.7301C294.419 72.5767 298.51 71 303.282 71C308.098 71 312.189 72.5767 315.555 75.7301C318.964 78.8835 320.669 82.6761 320.669 87.108C320.669 91.5398 318.964 95.3324 315.555 98.4858C312.189 101.639 308.098 103.216 303.282 103.216Z" fill="#2D0E04"/>
<path d="M232.411 168.67V113.443H267.695V211.625H234.2V192.96H233.178C231.047 199.224 227.318 204.125 221.991 207.662C216.665 211.156 210.337 212.903 203.007 212.903C196.146 212.903 190.138 211.327 184.982 208.173C179.868 205.02 175.884 200.673 173.028 195.134C170.216 189.594 168.788 183.244 168.746 176.085V113.443H204.03V168.67C204.072 173.528 205.308 177.342 207.737 180.112C210.209 182.882 213.661 184.267 218.092 184.267C221.033 184.267 223.568 183.649 225.699 182.413C227.872 181.135 229.534 179.345 230.685 177.044C231.878 174.7 232.453 171.909 232.411 168.67Z" fill="#2D0E04"/>
<path d="M48 211.625V80.7159H104.761C114.733 80.7159 123.107 82.0582 129.882 84.7429C136.7 87.4276 141.835 91.2202 145.287 96.1207C148.781 101.021 150.528 106.795 150.528 113.443C150.528 118.259 149.463 122.648 147.332 126.611C145.244 130.574 142.304 133.898 138.511 136.582C134.719 139.224 130.287 141.057 125.216 142.08V143.358C130.841 143.571 135.955 144.999 140.557 147.641C145.159 150.24 148.824 153.841 151.551 158.443C154.278 163.003 155.642 168.372 155.642 174.551C155.642 181.71 153.767 188.081 150.017 193.663C146.31 199.246 141.026 203.635 134.165 206.831C127.304 210.027 119.122 211.625 109.619 211.625H48ZM83.5398 183.244H100.159C106.125 183.244 110.599 182.136 113.582 179.92C116.565 177.662 118.057 174.338 118.057 169.949C118.057 166.881 117.354 164.281 115.947 162.151C114.541 160.02 112.538 158.401 109.939 157.293C107.382 156.185 104.293 155.631 100.67 155.631H83.5398V183.244ZM83.5398 133.642H98.1136C101.224 133.642 103.973 133.152 106.359 132.172C108.746 131.192 110.599 129.786 111.92 127.953C113.284 126.078 113.966 123.798 113.966 121.114C113.966 117.065 112.517 113.976 109.619 111.845C106.722 109.672 103.057 108.585 98.625 108.585H83.5398V133.642Z" fill="#2D0E04"/>
</svg>
