<svg width="500" height="500" viewBox="0 0 500 500" fill="none" xmlns="http://www.w3.org/2000/svg">
<path d="M175.799 470C170.795 470 166.028 469.606 161.498 468.817C156.968 468.081 152.991 467.056 149.567 465.741L159.049 434.827C162.631 436.089 165.896 436.904 168.846 437.272C171.848 437.64 174.403 437.43 176.51 436.641C178.67 435.852 180.224 434.354 181.172 432.146L182.12 429.938L139.454 303.442H184.964L204.559 387.352H205.823L225.734 303.442H271.56L227.314 434.67C225.102 441.347 221.889 447.34 217.675 452.65C213.513 458.013 208.035 462.245 201.24 465.347C194.446 468.449 185.965 470 175.799 470Z" fill="#2D0E04"/>
<path d="M0 424.575V263.064H70.1616C82.4873 263.064 92.8377 264.72 101.213 268.033C109.641 271.345 115.988 276.024 120.254 282.07C124.574 288.116 126.733 295.24 126.733 303.442C126.733 309.383 125.416 314.798 122.783 319.688C120.202 324.577 116.567 328.678 111.879 331.99C107.191 335.25 101.713 337.511 95.445 338.773V340.35C102.398 340.613 108.719 342.374 114.408 345.634C120.096 348.841 124.626 353.283 127.997 358.961C131.369 364.587 133.054 371.211 133.054 378.835C133.054 387.667 130.737 395.527 126.101 402.415C121.519 409.302 114.987 414.717 106.507 418.66C98.026 422.604 87.9127 424.575 76.1664 424.575H0ZM43.93 389.56H64.4728C71.8471 389.56 77.3779 388.193 81.0651 385.459C84.7522 382.673 86.5958 378.572 86.5958 373.157C86.5958 369.371 85.7267 366.164 83.9885 363.535C82.2502 360.907 79.7746 358.909 76.5614 357.542C73.401 356.175 69.5822 355.491 65.1049 355.491H43.93V389.56ZM43.93 328.363H61.9445C65.7896 328.363 69.1871 327.758 72.1368 326.549C75.0866 325.34 77.3779 323.605 79.0108 321.344C80.6963 319.031 81.5391 316.218 81.5391 312.906C81.5391 307.911 79.7482 304.099 76.1664 301.47C72.5846 298.789 68.0546 297.448 62.5765 297.448H43.93V328.363Z" fill="#2D0E04"/>
<path d="M497.788 81.3648V112.91H417.829V81.3648H497.788ZM433.315 52.3433H476.929V163.54C476.929 165.222 477.219 166.642 477.798 167.798C478.377 168.902 479.273 169.744 480.484 170.322C481.696 170.848 483.25 171.111 485.146 171.111C486.463 171.111 487.99 170.953 489.729 170.637C491.519 170.322 492.836 170.059 493.679 169.849L500 200.447C498.051 201.026 495.259 201.736 491.625 202.577C488.043 203.418 483.776 203.97 478.825 204.233C468.817 204.759 460.416 203.733 453.621 201.157C446.826 198.528 441.716 194.401 438.293 188.776C434.869 183.15 433.21 176.105 433.315 167.641V52.3433Z" fill="#2D0E04"/>
<path d="M403.192 40.9871V202.498H359.578V40.9871H403.192Z" fill="#2D0E04"/>
<path d="M293.742 202.498V81.3648H337.356V202.498H293.742ZM315.549 68.7468C309.65 68.7468 304.593 66.8015 300.379 62.9109C296.165 59.0204 294.058 54.3412 294.058 48.8734C294.058 43.4056 296.165 38.7264 300.379 34.8358C304.593 30.9453 309.65 29 315.549 29C321.501 29 326.558 30.9453 330.719 34.8358C334.933 38.7264 337.04 43.4056 337.04 48.8734C337.04 54.3412 334.933 59.0204 330.719 62.9109C326.558 66.8015 321.501 68.7468 315.549 68.7468Z" fill="#2D0E04"/>
<path d="M227.946 149.502V81.3648H271.56V202.498H230.158V179.47H228.894C226.261 187.198 221.652 193.245 215.067 197.608C208.483 201.92 200.661 204.075 191.601 204.075C183.121 204.075 175.694 202.13 169.32 198.239C162.999 194.349 158.074 188.986 154.545 182.151C151.069 175.317 149.304 167.483 149.251 158.65V81.3648H192.865V149.502C192.918 155.496 194.446 160.201 197.448 163.619C200.503 167.036 204.77 168.745 210.248 168.745C213.882 168.745 217.016 167.982 219.65 166.458C222.336 164.88 224.391 162.672 225.813 159.833C227.288 156.942 227.999 153.498 227.946 149.502Z" fill="#2D0E04"/>
<path d="M0 202.498V40.9871H70.1616C82.4873 40.9871 92.8377 42.6432 101.213 45.9555C109.641 49.2677 115.988 53.9469 120.254 59.993C124.574 66.0392 126.733 73.1631 126.733 81.3648C126.733 87.3058 125.416 92.721 122.783 97.6105C120.202 102.5 116.567 106.601 111.879 109.913C107.191 113.173 101.713 115.433 95.445 116.695V118.273C102.398 118.535 108.719 120.297 114.408 123.556C120.096 126.763 124.626 131.206 127.997 136.884C131.369 142.51 133.054 149.134 133.054 156.758C133.054 165.59 130.737 173.45 126.101 180.337C121.519 187.225 114.987 192.64 106.507 196.583C98.026 200.526 87.9127 202.498 76.1664 202.498H0ZM43.93 167.483H64.4728C71.8471 167.483 77.3779 166.116 81.0651 163.382C84.7522 160.595 86.5958 156.495 86.5958 151.079C86.5958 147.294 85.7267 144.087 83.9885 141.458C82.2502 138.829 79.7746 136.832 76.5614 135.465C73.401 134.098 69.5822 133.414 65.1049 133.414H43.93V167.483ZM43.93 106.285H61.9445C65.7896 106.285 69.1871 105.681 72.1368 104.472C75.0866 103.262 77.3779 101.527 79.0108 99.2666C80.6963 96.9533 81.5391 94.1406 81.5391 90.8283C81.5391 85.8337 79.7482 82.022 76.1664 79.3932C72.5846 76.7119 68.0546 75.3712 62.5765 75.3712H43.93V106.285Z" fill="#2D0E04"/>
</svg>
